Coordinates
version=1
nRows=17
nColumns=33
inDegrees=yes

Units are S.I. units (second, meters, Newtons, ...)
Angles are in degrees.

endheader
time	ground_thorax_rot_x	ground_thorax_rot_y	ground_thorax_rot_z	ground_thorax_tx	ground_thorax_ty	ground_thorax_tz	clav_prot_r	clav_elev_r	scapula_abduction_r	scapula_elevation_r	scapula_upward_rot_r	scapula_winging_r	shoulder_elv_r	plane_of_elev_r	axial_rot_r	elbow_flexion_r	pro_sup_r	wrist_flex_r	wrist_dev_r	clav_prot_l	clav_elev_l	scapula_abduction_l	scapula_elevation_l	scapula_upward_rot_l	scapula_winging_l	shoulder_elv_l	plane_of_elev_l	axial_rot_l	elbow_flexion_l	pro_sup_l	wrist_flex_l	wrist_dev_l	
7.3000	-90.000000	90.000000	-90.000000	-183.628047	823.650763	5.165538	28.616727	41.379150	45.000000	45.000000	14.403310	3221.030721	-260.429461	24.156019	-161.409349	744.825342	164.763110	11.112768	3.303105	-45.000000	0.849893	36.942513	-11.421282	-45.000000	-1331.955190	-244.788632	10.370734	-158.056503	2169.951254	20.326546	8.628705	-22.614994	
7.3100	-90.000000	90.000000	-90.000000	-179.595137	822.601984	5.232280	28.793402	41.405919	45.000000	45.000000	14.242465	3220.735476	-260.452719	24.055190	-161.437197	744.764470	166.668510	10.993325	3.275796	-45.000000	0.798984	37.190478	-11.393204	-45.000000	-1331.819523	-244.973569	10.198014	-157.479213	2169.919151	19.439180	9.023424	-22.455072	
7.3200	-90.000000	90.000000	-90.000000	-175.441484	821.432739	5.288567	28.977669	41.434769	45.000000	45.000000	14.084650	3220.437642	-260.473933	23.948862	-161.476601	744.690807	168.486155	10.882413	3.243256	-45.000000	0.776707	37.462508	-11.390077	-45.000000	-1331.682736	-245.171991	10.020356	-156.877204	2169.876434	18.640555	9.412991	-22.277995	
7.3300	-90.000000	90.000000	-90.000000	-171.171480	820.137062	5.330664	29.169790	41.464934	45.000000	45.000000	13.928116	3220.138444	-260.494900	23.837206	-161.529561	744.607596	170.211400	10.780273	3.205777	-45.000000	0.786188	37.757044	-11.414636	-45.000000	-1331.543817	-245.385309	9.842295	-156.249242	2169.828544	17.955597	9.789665	-22.088614	
7.3400	-90.000000	90.000000	-90.000000	-166.790574	818.710638	5.355216	29.369675	41.496330	45.000000	45.000000	13.774134	3219.837488	-260.513831	23.720365	-161.599130	744.515609	171.840489	10.687897	3.162349	-45.000000	0.829015	38.075410	-11.467596	-45.000000	-1331.405113	-245.613227	9.662005	-155.597170	2169.770016	17.407722	10.148058	-21.890765	
7.3500	-90.000000	90.000000	-90.000000	-162.305688	817.151209	5.359852	29.577024	41.529536	45.000000	45.000000	13.621576	3219.534413	-260.529192	23.600740	-161.688266	744.420337	173.371982	10.605303	3.110962	-45.000000	0.906263	38.415928	-11.551093	-45.000000	-1331.266590	-245.857486	9.481578	-154.921423	2169.699673	17.013338	10.482148	-21.688855	
7.3600	-90.000000	90.000000	-90.000000	-157.725315	815.458749	5.344323	29.790669	41.564821	45.000000	45.000000	13.470570	3219.228637	-260.540433	23.478089	-161.802442	744.318335	174.802520	10.534343	3.049000	-45.000000	1.015147	38.778914	-11.663322	-45.000000	-1331.131611	-246.113166	9.296736	-154.225507	2169.614687	16.783132	10.790205	-21.487097	
7.3700	-90.000000	90.000000	-90.000000	-153.059460	813.635547	5.310740	30.009559	41.602439	45.000000	45.000000	13.321194	3218.917600	-260.546426	23.352887	-161.944249	744.213754	176.127385	10.475107	2.974282	-45.000000	1.151732	39.159713	-11.802257	-45.000000	-1330.998322	-246.380254	9.110698	-153.507574	2169.514360	16.721137	11.071065	-21.289721	
7.3800	-90.000000	90.000000	-90.000000	-148.320472	811.686609	5.263789	30.231187	41.640397	45.000000	45.000000	13.176532	3218.598464	-260.549080	23.220240	-162.118613	744.094315	177.334469	10.431033	2.885702	-45.000000	1.306934	39.555792	-11.956356	-45.000000	-1330.861464	-246.647097	8.924095	-152.772871	2169.399918	16.829462	11.328959	-21.101184	
7.3900	-90.000000	90.000000	-90.000000	-143.522906	809.619590	5.210040	30.454847	41.680114	45.000000	45.000000	13.036328	3218.270310	-260.548172	23.082794	-162.322118	743.969535	178.413216	10.401165	2.781923	-45.000000	1.477753	39.961346	-12.127772	-45.000000	-1330.722626	-246.918802	8.737808	-152.013846	2169.268410	17.104981	11.562918	-20.924289	
7.4000	-90.000000	90.000000	-90.000000	-138.684016	807.444901	5.157355	30.678028	41.720442	45.000000	45.000000	12.903183	3217.932908	-260.546048	22.938733	-162.552764	743.830858	179.351363	10.388172	2.662678	-45.000000	1.659371	40.377374	-12.306628	-45.000000	-1330.579289	-247.184963	8.550375	-151.229949	2169.120723	17.543132	11.777883	-20.762312	
7.4100	-90.000000	90.000000	-90.000000	-133.822887	805.175201	5.113882	30.900318	41.763762	45.000000	45.000000	12.776029	3217.586707	-260.541493	22.793376	-162.799619	743.693876	180.144052	10.389582	2.527620	-45.000000	1.853459	40.800993	-12.498179	-45.000000	-1330.436180	-247.454056	8.361970	-150.405715	2168.950359	18.134216	11.972929	-20.615962	
7.4200	-90.000000	90.000000	-90.000000	-128.960967	802.825468	5.087507	31.119436	41.808925	45.000000	45.000000	12.656372	3217.231751	-260.535765	22.646875	-163.056156	743.551648	180.786251	10.407157	2.377508	-45.000000	2.057827	41.232557	-12.694044	-45.000000	-1330.289105	-247.718824	8.173521	-149.538168	2168.757748	18.868315	12.152270	-20.486863	
7.4300	-90.000000	90.000000	-90.000000	-124.121223	800.412572	5.085341	31.335824	41.858827	45.000000	45.000000	12.541326	3216.871456	-260.526840	22.507190	-163.309184	743.422129	181.278144	10.437233	2.212925	-45.000000	2.276163	41.667524	-12.908699	-45.000000	-1330.149570	-247.998388	7.981052	-148.609700	2168.533892	19.733453	12.312425	-20.373873	
7.4400	-90.000000	90.000000	-90.000000	-119.328417	797.955504	5.113495	31.546730	41.910563	45.000000	45.000000	12.432963	3216.505136	-260.516047	22.371656	-163.553761	743.290798	181.616215	10.482664	2.036069	-45.000000	2.506144	42.104490	-13.128365	-45.000000	-1330.008210	-248.279989	7.787771	-147.619201	2168.282377	20.716675	12.458558	-20.277999	
7.4500	-90.000000	90.000000	-90.000000	-114.607974	795.475157	5.176723	31.751894	41.964993	45.000000	45.000000	12.330322	3216.134733	-260.501766	22.242745	-163.780427	743.165785	181.797468	10.541644	1.849467	-45.000000	2.747745	42.536864	-13.359649	-45.000000	-1329.871443	-248.574342	7.591114	-146.553782	2167.997038	21.801314	12.589470	-20.197121	
7.4600	-90.000000	90.000000	-90.000000	-109.985854	792.994607	5.278122	31.949367	42.019834	45.000000	45.000000	12.233807	3215.759686	-260.484574	22.118524	-163.987541	743.036435	181.812263	10.616373	1.656329	-45.000000	2.998470	42.960471	-13.593278	-45.000000	-1329.732142	-248.873841	7.394121	-145.411717	2167.678592	22.969243	12.708310	-20.129975	
